<?xml version="1.0" encoding="UTF-8" standalone="no"?>
<!-- Created with Inkscape (http://www.inkscape.org/) -->

<svg
   width="98.470169mm"
   height="138.313mm"
   viewBox="0 0 98.47017 138.313"
   version="1.1"
   id="svg1"
   xml:space="preserve"
   inkscape:version="1.3 (0e150ed6c4, 2023-07-21)"
   sodipodi:docname="Echo Blvd Logo.svg"
   inkscape:export-filename="Echo Blvd Logo.png"
   inkscape:export-xdpi="96"
   inkscape:export-ydpi="96"
   xmlns:inkscape="http://www.inkscape.org/namespaces/inkscape"
   xmlns:sodipodi="http://sodipodi.sourceforge.net/DTD/sodipodi-0.dtd"
   xmlns="http://www.w3.org/2000/svg"
   xmlns:svg="http://www.w3.org/2000/svg"><sodipodi:namedview
     id="namedview1"
     pagecolor="#ffffff"
     bordercolor="#000000"
     borderopacity="0.25"
     inkscape:showpageshadow="2"
     inkscape:pageopacity="0.0"
     inkscape:pagecheckerboard="0"
     inkscape:deskcolor="#d1d1d1"
     inkscape:document-units="mm"
     inkscape:zoom="2"
     inkscape:cx="294.75"
     inkscape:cy="190.5"
     inkscape:window-width="3840"
     inkscape:window-height="2036"
     inkscape:window-x="-12"
     inkscape:window-y="-12"
     inkscape:window-maximized="1"
     inkscape:current-layer="layer1" /><defs
     id="defs1"><rect
       x="185.89481"
       y="196.71407"
       width="419.00098"
       height="88.029549"
       id="rect1" /></defs><g
     inkscape:label="Layer 1"
     inkscape:groupmode="layer"
     id="layer1"
     transform="translate(-54.687821,-73.801927)"><path
       id="text9"
       style="font-style:normal;font-variant:normal;font-weight:bold;font-stretch:normal;font-size:25.4px;font-family:'Trebuchet MS';-inkscape-font-specification:'Trebuchet MS Bold';text-align:start;writing-mode:lr-tb;direction:ltr;text-anchor:start;fill:#c7b993;fill-opacity:1;stroke:#c7b993;stroke-width:0.741634;stroke-dasharray:none;stroke-opacity:1"
       inkscape:label="e"
       d="m 64.419706,85.0912 -9.222394,6.794721 10.307233,14.925859 9.113858,-6.71496 -1.625489,-2.353709 -6.549419,4.825299 -3.088431,-4.472288 4.773994,-3.517033 -1.554815,-2.25204 -4.774001,3.517546 -2.412995,-3.494602 6.657448,-4.905065 z" /><text
       xml:space="preserve"
       style="font-style:normal;font-variant:normal;font-weight:bold;font-stretch:normal;font-size:25.4px;line-height:0;font-family:'Trebuchet MS';-inkscape-font-specification:'Trebuchet MS Bold';text-align:start;writing-mode:lr-tb;direction:ltr;text-anchor:start;fill:#c7b993;fill-opacity:1;stroke:#c7b993;stroke-width:0.264583;stroke-opacity:1"
       x="62.357914"
       y="110.92051"
       id="text2"
       transform="rotate(-12.269103)"
       inkscape:label="c"><tspan
         sodipodi:role="line"
         id="tspan2"
         style="fill:#c7b993;fill-opacity:1;stroke:#c7b993;stroke-width:0.264583;stroke-opacity:1"
         x="62.357914"
         y="110.92051">C</tspan></text><text
       xml:space="preserve"
       style="font-style:normal;font-variant:normal;font-weight:bold;font-stretch:normal;font-size:25.4px;font-family:'Trebuchet MS';-inkscape-font-specification:'Trebuchet MS Bold';text-align:start;writing-mode:lr-tb;direction:ltr;text-anchor:start;fill:#c7b993;fill-opacity:1;stroke:#c7b993;stroke-width:0.264583;stroke-opacity:1"
       x="126.82014"
       y="62.712997"
       id="text3"
       transform="rotate(14.157881)"
       inkscape:label="h"><tspan
         sodipodi:role="line"
         id="tspan3"
         style="fill:#c7b993;fill-opacity:1;stroke:#c7b993;stroke-width:0.264583;stroke-opacity:1"
         x="126.82014"
         y="62.712997">H</tspan></text><text
       xml:space="preserve"
       style="font-style:normal;font-variant:normal;font-weight:bold;font-stretch:normal;font-size:25.7936px;font-family:'Trebuchet MS';-inkscape-font-specification:'Trebuchet MS Bold';text-align:start;writing-mode:lr-tb;direction:ltr;text-anchor:start;fill:#c7b993;fill-opacity:1;stroke:#c7b993;stroke-width:0.268683;stroke-opacity:1"
       x="161.14281"
       y="15.390271"
       id="text4"
       transform="matrix(0.8483003,0.52976172,-0.53007686,0.84779597,0,0)"
       inkscape:label="o"><tspan
         sodipodi:role="line"
         id="tspan4"
         style="fill:#c7b993;fill-opacity:1;stroke:#c7b993;stroke-width:0.268683;stroke-opacity:1"
         x="161.14281"
         y="15.390271">O</tspan></text><ellipse
       style="fill:none;fill-opacity:1;stroke:#c7b993;stroke-width:0.747;stroke-dasharray:none;stroke-opacity:1"
       id="path4"
       ry="42.036732"
       rx="43.468029"
       cy="143.12997"
       cx="103.18369"
       inkscape:label="circle" /><ellipse
       style="display:none;fill:none;fill-opacity:1;stroke:#c7b993;stroke-width:1.234;stroke-dasharray:none;stroke-opacity:1"
       id="path4-1"
       ry="69.442192"
       rx="71.80661"
       cy="142.9519"
       cx="103.24049"
       inkscape:label="circle" /><ellipse
       style="display:none;fill:none;fill-opacity:1;stroke:#c7b993;stroke-width:0.892912;stroke-dasharray:none;stroke-opacity:1"
       id="path4-1-8"
       ry="50.247791"
       rx="51.958668"
       cy="142.63669"
       cx="102.90883"
       inkscape:label="circle" /><text
       xml:space="preserve"
       style="font-style:normal;font-variant:normal;font-weight:bold;font-stretch:normal;font-size:25.4px;font-family:'Trebuchet MS';-inkscape-font-specification:'Trebuchet MS Bold';text-align:start;writing-mode:lr-tb;direction:ltr;text-anchor:start;fill:#c7b993;fill-opacity:1;stroke:#c7b993;stroke-width:0.747001;stroke-dasharray:none;stroke-opacity:1"
       x="158.5215"
       y="127.33939"
       id="text5"
       transform="rotate(35)"
       inkscape:label="b"><tspan
         sodipodi:role="line"
         id="tspan5"
         style="fill:#c7b993;fill-opacity:1;stroke:#c7b993;stroke-width:0.747;stroke-opacity:1"
         x="158.5215"
         y="127.33939">B</tspan></text><text
       xml:space="preserve"
       style="font-style:normal;font-variant:normal;font-weight:bold;font-stretch:normal;font-size:25.4px;font-family:'Trebuchet MS';-inkscape-font-specification:'Trebuchet MS Bold';text-align:start;writing-mode:lr-tb;direction:ltr;text-anchor:start;fill:#c7b993;fill-opacity:1;stroke:#c7b993;stroke-width:0.747001;stroke-dasharray:none;stroke-opacity:1"
       x="126.87521"
       y="184.92267"
       id="text6"
       transform="rotate(13)"
       inkscape:label="l"><tspan
         sodipodi:role="line"
         id="tspan6"
         style="fill:#c7b993;fill-opacity:1;stroke:#c7b993;stroke-width:0.747;stroke-opacity:1"
         x="126.87521"
         y="184.92267">L</tspan></text><text
       xml:space="preserve"
       style="font-style:normal;font-variant:normal;font-weight:bold;font-stretch:normal;font-size:25.4927px;font-family:'Trebuchet MS';-inkscape-font-specification:'Trebuchet MS Bold';text-align:start;writing-mode:lr-tb;direction:ltr;text-anchor:start;fill:#c7b993;fill-opacity:1;stroke:#c7b993;stroke-width:0.749726;stroke-dasharray:none;stroke-opacity:1"
       x="57.127327"
       y="230.80557"
       id="text7"
       transform="matrix(0.95446375,-0.2573896,0.25065322,0.98011524,0,0)"
       inkscape:label="v"><tspan
         sodipodi:role="line"
         id="tspan7"
         style="fill:#c7b993;fill-opacity:1;stroke:#c7b993;stroke-width:0.749725;stroke-opacity:1"
         x="57.127327"
         y="230.80557">V</tspan></text><text
       xml:space="preserve"
       style="font-style:normal;font-variant:normal;font-weight:bold;font-stretch:normal;font-size:25.8657px;font-family:'Trebuchet MS';-inkscape-font-specification:'Trebuchet MS Bold';text-align:start;writing-mode:lr-tb;direction:ltr;text-anchor:start;fill:#c7b993;fill-opacity:1;stroke:#c7b993;stroke-width:0.760697;stroke-dasharray:none;stroke-opacity:1"
       x="8.1023045"
       y="244.90414"
       id="text8"
       transform="matrix(0.83391184,-0.54774703,0.54154868,0.84345646,0,0)"
       inkscape:label="d"><tspan
         sodipodi:role="line"
         id="tspan8"
         style="fill:#c7b993;fill-opacity:1;stroke:#c7b993;stroke-width:0.760696;stroke-opacity:1"
         x="8.1023045"
         y="244.90414">D</tspan></text><path
       style="fill:#c7b993;fill-opacity:1;stroke:#c7b993;stroke-width:0.747001;stroke-dasharray:none;stroke-opacity:1"
       d="m 139.35655,143.4878 c 0,0 -8.10187,-0.26821 -9.29714,-0.31601 -0.64215,-0.0257 -1.36529,1.03226 -2.45369,2.08321 -0.81008,0.78221 -4.37311,5.33891 -4.99649,5.04051 -0.54988,-0.26321 -0.76689,-1.06729 -0.76689,-1.06729 l -2.38026,-8.14227 c -0.89841,-2.92088 -1.21099,-4.23268 -2.49763,-8.22721 -0.7033,3.15551 -1.23002,8.42089 -1.81715,11.68493 -0.81709,4.47608 -2.38818,19.56708 -3.43257,20.16475 -1.04439,0.59767 -1.24623,0.7303 -2.08638,0.14741 -0.84015,-0.58291 -1.26361,-4.48251 -1.26361,-4.48251 0,0 -0.70588,-4.43831 -1.16303,-8.63725 -0.45715,-4.19894 -1.76119,-16.73814 -1.76119,-16.73814 l -1.42612,-18.21747 c -1.09321,5.55813 -1.5261,10.36202 -2.13917,15.98629 l -2.00116,20.88568 -0.878787,8.08694 c 0,0 -1.10849,6.30732 -1.674395,6.27804 -0.565905,-0.0293 -1.344458,-2.16235 -1.885757,-6.59003 -0.541299,-4.42767 -2.000763,-20.2517 -2.000763,-20.2517 -0.207028,-3.31615 -1.164864,-17.35116 -1.84071,-16.15128 -0.675847,1.19988 -2.336925,14.38367 -2.657894,16.31647 -0.341466,1.85296 -1.565772,10.98553 -2.179479,11.06005 -0.613706,0.0745 -3.039255,-6.70846 -4.033664,-9.82393 -0.743381,-2.3192 -1.219173,-4.03524 -1.821654,-3.96861 -0.835518,0.0924 -1.695317,3.17111 -2.504776,3.8385 -0.809459,0.66739 -1.431302,1.23125 -3.090306,1.30118 -3.297823,-0.003 -8.880563,-0.19518 -8.880563,-0.19518 0,0 8.653989,0.18718 10.702218,-0.97588 2.784741,-1.58075 2.332688,-5.56595 4.131252,-4.87948 0.722373,0.27572 1.32783,2.14174 3.48066,8.81551 1.627736,5.04599 2.037355,6.12464 2.504775,1.30118 0.467419,-4.82345 1.404734,-9.5211 2.016832,-14.93106 0,0 1.170127,-8.90921 2.267539,-9.14908 1.097412,-0.23988 1.926016,4.83003 2.156479,6.44913 0.230462,1.6191 1.397414,14.13688 1.397414,14.13688 l 1.070207,12.20647 1.062313,9.42551 1.251908,-17.19449 1.820691,-21.76226 c 0.42708,-2.34113 0.47928,-10.7194 2.87145,-12.54524 0.52396,-0.30385 0.66398,-0.17416 1.38545,0.18458 2.68447,1.93929 2.41938,7.10564 2.70321,10.01802 l 1.15759,19.82915 c 0.44456,5.0469 1.09686,14.55998 2.1407,19.4315 0.51828,-1.23061 0.40818,-0.66467 1.91866,-11.67955 0.40068,-2.28966 1.88281,-11.56054 2.69246,-17.21031 0,0 0.0971,-3.43839 1.31712,-3.95974 1.21999,-0.52135 1.63541,0.21395 1.77418,0.71924 1.84738,6.72697 2.86226,11.54484 3.46545,13.56614 l 1.14549,3.74985 c 0,0 5.78836,-6.00326 6.68948,-6.03527 0.58148,-0.0207 6.5105,0.24069 9.8077,0.42412 z"
       id="path8"
       sodipodi:nodetypes="cssscccczzczccccczzczczzszsczsszczzccccczzccccczsccsc"
       inkscape:label="waveform" /></g></svg>
